<svg xmlns="http://www.w3.org/2000/svg" width="933.333" height="933.333" preserveAspectRatio="xMidYMid meet" version="1.0" viewBox="0 0 700 700"><metadata>Created by potrace 1.14, written by Peter Selinger 2001-2017</metadata><g fill="#000" stroke="none"><path d="M3188 6945 c-2 -2 -37 -6 -77 -9 -41 -4 -77 -9 -80 -10 -4 -2 -28 -6 -56 -10 -27 -3 -61 -8 -75 -11 -14 -3 -41 -8 -60 -11 -19 -3 -96 -20 -170 -39 -390 -98 -735 -250 -1072 -471 -118 -78 -303 -216 -339 -253 -8 -9 -34 -31 -57 -49 -82 -67 -289 -280 -378 -390 -10 -13 -27 -33 -38 -45 -31 -37 -119 -158 -172 -237 -183 -272 -314 -544 -414 -855 -70 -221 -68 -211 -85 -295 -58 -273 -70 -414 -70 -850 0 -366 2 -383 72 -590 103 -309 261 -601 451 -835 75 -93 244 -264 317 -321 28 -21 52 -42 55 -45 17 -21 252 -164 340 -206 93 -45 260 -108 315 -119 11 -2 43 -8 70 -14 108 -22 278 -29 370 -15 264 39 490 133 704 293 79 59 244 218 296 286 187 242 287 504 288 751 3 609 -451 1192 -1067 1370 -121 34 -167 40 -331 40 -194 0 -304 -21 -483 -91 l-83 -33 -8 22 c-8 21 -14 56 -29 162 -15 109 -6 570 13 645 2 8 7 33 10 55 3 23 8 52 10 65 3 14 8 41 11 60 12 74 74 299 108 395 253 702 889 1310 1664 1591 82 29 146 61 132 65 -9 3 -80 6 -82 4z" transform="translate(0.000000,700.000000) scale(0.100000,-0.100000)"/><path d="M3868 6785 c-2 -2 -55 -5 -118 -9 -63 -3 -124 -7 -135 -10 -11 -2 -41 -6 -67 -10 -230 -34 -660 -231 -863 -396 -77 -63 -236 -235 -287 -311 -111 -167 -186 -349 -204 -499 -3 -24 -8 -48 -11 -52 -6 -11 -5 -271 1 -318 3 -19 7 -56 11 -81 25 -191 95 -424 172 -569 78 -147 209 -296 344 -392 117 -84 332 -179 456 -203 241 -45 456 -40 674 15 206 53 421 157 598 291 202 152 331 371 417 710 14 57 28 117 31 133 11 66 12 66 83 33 349 -163 505 -257 735 -445 219 -179 440 -432 555 -638 241 -427 348 -775 376 -1220 14 -212 4 -498 -21 -624 -3 -14 -8 -42 -11 -64 -8 -51 -12 -74 -18 -94 -10 -30 -15 -112 -8 -112 8 0 21 28 94 205 66 159 132 359 173 526 31 128 37 156 51 247 3 20 7 44 9 52 6 21 15 90 29 232 12 119 14 503 2 598 -3 25 -8 73 -11 108 -4 35 -8 71 -10 82 -2 10 -7 40 -10 67 -4 26 -15 86 -25 133 -11 47 -21 96 -23 110 -16 84 -91 323 -145 460 -180 452 -442 849 -788 1194 -224 223 -451 398 -725 559 -194 114 -469 227 -616 253 -15 3 -46 9 -69 14 -22 5 -83 12 -135 15 -93 6 -506 14 -511 10z" transform="translate(0.000000,700.000000) scale(0.100000,-0.100000)"/><path d="M4695 3914 c-49 -7 -112 -20 -140 -29 -290 -99 -608 -377 -739 -650 -62 -127 -93 -221 -125 -375 -29 -142 -32 -163 -36 -315 -6 -224 27 -395 111 -570 70 -145 128 -224 282 -383 60 -63 116 -127 126 -142 l16 -29 -57 -44 c-82 -62 -190 -133 -318 -209 -321 -189 -647 -299 -990 -333 -33 -3 -78 -8 -100 -10 -60 -7 -358 -6 -450 0 -240 18 -463 69 -700 162 -94 37 -314 142 -400 191 -135 76 -339 222 -480 342 -106 90 -117 98 -108 73 10 -26 79 -128 142 -208 241 -307 558 -596 881 -801 185 -118 291 -175 520 -277 213 -96 593 -209 780 -233 19 -2 60 -9 90 -14 93 -16 218 -24 390 -24 152 0 401 11 453 19 12 2 54 7 92 11 84 8 88 9 145 18 25 4 56 9 70 12 14 2 88 19 165 38 489 121 939 340 1270 619 119 100 229 214 307 318 120 160 258 401 333 584 21 50 44 104 51 120 18 42 70 230 79 285 4 25 9 54 11 65 19 97 25 445 11 589 -16 161 -51 281 -123 429 -83 171 -181 295 -349 442 -104 91 -347 221 -495 265 -41 12 -86 26 -100 31 -24 8 -101 22 -185 34 -81 12 -343 11 -430 -1z" transform="translate(0.000000,700.000000) scale(0.100000,-0.100000)"/></g></svg>